<mxfile host="app.diagrams.net" agent="Mozilla/5.0 (Windows NT 10.0; Win64; x64) AppleWebKit/537.36 (KHTML, like Gecko) Chrome/135.0.0.0 Safari/537.36" version="26.2.13">
  <diagram name="Page-1" id="kohk_zdC75T-vjo-MDrF">
    <mxGraphModel dx="4637" dy="1529" grid="1" gridSize="10" guides="1" tooltips="1" connect="1" arrows="1" fold="1" page="1" pageScale="1" pageWidth="827" pageHeight="1169" math="0" shadow="0">
      <root>
        <mxCell id="0" />
        <mxCell id="1" parent="0" />
        <mxCell id="01P3GvGtitKNu42vUklI-1" value="" style="childLayout=tableLayout;recursiveResize=0;shadow=0;fillColor=none;" vertex="1" parent="1">
          <mxGeometry x="-750" y="100" width="240" height="50" as="geometry" />
        </mxCell>
        <mxCell id="01P3GvGtitKNu42vUklI-2" value="" style="shape=tableRow;horizontal=0;startSize=0;swimlaneHead=0;swimlaneBody=0;top=0;left=0;bottom=0;right=0;dropTarget=0;collapsible=0;recursiveResize=0;expand=0;fontStyle=0;fillColor=none;strokeColor=inherit;" vertex="1" parent="01P3GvGtitKNu42vUklI-1">
          <mxGeometry width="240" height="50" as="geometry" />
        </mxCell>
        <mxCell id="01P3GvGtitKNu42vUklI-3" value="&lt;u&gt;ID&lt;/u&gt;" style="connectable=0;recursiveResize=0;strokeColor=inherit;fillColor=none;align=center;whiteSpace=wrap;html=1;" vertex="1" parent="01P3GvGtitKNu42vUklI-2">
          <mxGeometry width="60" height="50" as="geometry">
            <mxRectangle width="60" height="50" as="alternateBounds" />
          </mxGeometry>
        </mxCell>
        <mxCell id="01P3GvGtitKNu42vUklI-4" value="Password" style="connectable=0;recursiveResize=0;strokeColor=inherit;fillColor=none;align=center;whiteSpace=wrap;html=1;" vertex="1" parent="01P3GvGtitKNu42vUklI-2">
          <mxGeometry x="60" width="60" height="50" as="geometry">
            <mxRectangle width="60" height="50" as="alternateBounds" />
          </mxGeometry>
        </mxCell>
        <mxCell id="01P3GvGtitKNu42vUklI-5" value="Name" style="connectable=0;recursiveResize=0;strokeColor=inherit;fillColor=none;align=center;whiteSpace=wrap;html=1;" vertex="1" parent="01P3GvGtitKNu42vUklI-2">
          <mxGeometry x="120" width="60" height="50" as="geometry">
            <mxRectangle width="60" height="50" as="alternateBounds" />
          </mxGeometry>
        </mxCell>
        <mxCell id="01P3GvGtitKNu42vUklI-8" value="email" style="connectable=0;recursiveResize=0;strokeColor=inherit;fillColor=none;align=center;whiteSpace=wrap;html=1;" vertex="1" parent="01P3GvGtitKNu42vUklI-2">
          <mxGeometry x="180" width="60" height="50" as="geometry">
            <mxRectangle width="60" height="50" as="alternateBounds" />
          </mxGeometry>
        </mxCell>
        <mxCell id="01P3GvGtitKNu42vUklI-9" value="Room Services Member" style="text;html=1;align=center;verticalAlign=middle;whiteSpace=wrap;rounded=0;" vertex="1" parent="1">
          <mxGeometry x="-750" y="70" width="140" height="30" as="geometry" />
        </mxCell>
        <mxCell id="01P3GvGtitKNu42vUklI-10" value="" style="childLayout=tableLayout;recursiveResize=0;shadow=0;fillColor=none;" vertex="1" parent="1">
          <mxGeometry x="-750" y="220" width="240" height="50" as="geometry" />
        </mxCell>
        <mxCell id="01P3GvGtitKNu42vUklI-11" value="" style="shape=tableRow;horizontal=0;startSize=0;swimlaneHead=0;swimlaneBody=0;top=0;left=0;bottom=0;right=0;dropTarget=0;collapsible=0;recursiveResize=0;expand=0;fontStyle=0;fillColor=none;strokeColor=inherit;" vertex="1" parent="01P3GvGtitKNu42vUklI-10">
          <mxGeometry width="240" height="50" as="geometry" />
        </mxCell>
        <mxCell id="01P3GvGtitKNu42vUklI-12" value="&lt;u&gt;ID&lt;/u&gt;" style="connectable=0;recursiveResize=0;strokeColor=inherit;fillColor=none;align=center;whiteSpace=wrap;html=1;" vertex="1" parent="01P3GvGtitKNu42vUklI-11">
          <mxGeometry width="60" height="50" as="geometry">
            <mxRectangle width="60" height="50" as="alternateBounds" />
          </mxGeometry>
        </mxCell>
        <mxCell id="01P3GvGtitKNu42vUklI-13" value="Password" style="connectable=0;recursiveResize=0;strokeColor=inherit;fillColor=none;align=center;whiteSpace=wrap;html=1;" vertex="1" parent="01P3GvGtitKNu42vUklI-11">
          <mxGeometry x="60" width="60" height="50" as="geometry">
            <mxRectangle width="60" height="50" as="alternateBounds" />
          </mxGeometry>
        </mxCell>
        <mxCell id="01P3GvGtitKNu42vUklI-14" value="Name" style="connectable=0;recursiveResize=0;strokeColor=inherit;fillColor=none;align=center;whiteSpace=wrap;html=1;" vertex="1" parent="01P3GvGtitKNu42vUklI-11">
          <mxGeometry x="120" width="60" height="50" as="geometry">
            <mxRectangle width="60" height="50" as="alternateBounds" />
          </mxGeometry>
        </mxCell>
        <mxCell id="01P3GvGtitKNu42vUklI-15" value="email" style="connectable=0;recursiveResize=0;strokeColor=inherit;fillColor=none;align=center;whiteSpace=wrap;html=1;" vertex="1" parent="01P3GvGtitKNu42vUklI-11">
          <mxGeometry x="180" width="60" height="50" as="geometry">
            <mxRectangle width="60" height="50" as="alternateBounds" />
          </mxGeometry>
        </mxCell>
        <mxCell id="01P3GvGtitKNu42vUklI-16" value="Cleaning Staff Member" style="text;html=1;align=center;verticalAlign=middle;whiteSpace=wrap;rounded=0;" vertex="1" parent="1">
          <mxGeometry x="-750" y="190" width="130" height="30" as="geometry" />
        </mxCell>
        <mxCell id="01P3GvGtitKNu42vUklI-17" value="" style="childLayout=tableLayout;recursiveResize=0;shadow=0;fillColor=none;" vertex="1" parent="1">
          <mxGeometry x="-750" y="360" width="240" height="50" as="geometry" />
        </mxCell>
        <mxCell id="01P3GvGtitKNu42vUklI-18" value="" style="shape=tableRow;horizontal=0;startSize=0;swimlaneHead=0;swimlaneBody=0;top=0;left=0;bottom=0;right=0;dropTarget=0;collapsible=0;recursiveResize=0;expand=0;fontStyle=0;fillColor=none;strokeColor=inherit;" vertex="1" parent="01P3GvGtitKNu42vUklI-17">
          <mxGeometry width="240" height="50" as="geometry" />
        </mxCell>
        <mxCell id="01P3GvGtitKNu42vUklI-19" value="&lt;u&gt;ID&lt;/u&gt;" style="connectable=0;recursiveResize=0;strokeColor=inherit;fillColor=none;align=center;whiteSpace=wrap;html=1;" vertex="1" parent="01P3GvGtitKNu42vUklI-18">
          <mxGeometry width="60" height="50" as="geometry">
            <mxRectangle width="60" height="50" as="alternateBounds" />
          </mxGeometry>
        </mxCell>
        <mxCell id="01P3GvGtitKNu42vUklI-20" value="Password" style="connectable=0;recursiveResize=0;strokeColor=inherit;fillColor=none;align=center;whiteSpace=wrap;html=1;" vertex="1" parent="01P3GvGtitKNu42vUklI-18">
          <mxGeometry x="60" width="60" height="50" as="geometry">
            <mxRectangle width="60" height="50" as="alternateBounds" />
          </mxGeometry>
        </mxCell>
        <mxCell id="01P3GvGtitKNu42vUklI-21" value="Name" style="connectable=0;recursiveResize=0;strokeColor=inherit;fillColor=none;align=center;whiteSpace=wrap;html=1;" vertex="1" parent="01P3GvGtitKNu42vUklI-18">
          <mxGeometry x="120" width="60" height="50" as="geometry">
            <mxRectangle width="60" height="50" as="alternateBounds" />
          </mxGeometry>
        </mxCell>
        <mxCell id="01P3GvGtitKNu42vUklI-22" value="email" style="connectable=0;recursiveResize=0;strokeColor=inherit;fillColor=none;align=center;whiteSpace=wrap;html=1;" vertex="1" parent="01P3GvGtitKNu42vUklI-18">
          <mxGeometry x="180" width="60" height="50" as="geometry">
            <mxRectangle width="60" height="50" as="alternateBounds" />
          </mxGeometry>
        </mxCell>
        <mxCell id="01P3GvGtitKNu42vUklI-23" value="Registrar" style="text;html=1;align=center;verticalAlign=middle;whiteSpace=wrap;rounded=0;" vertex="1" parent="1">
          <mxGeometry x="-750" y="330" width="60" height="30" as="geometry" />
        </mxCell>
        <mxCell id="01P3GvGtitKNu42vUklI-30" value="TA" style="text;html=1;align=center;verticalAlign=middle;whiteSpace=wrap;rounded=0;" vertex="1" parent="1">
          <mxGeometry x="-750" y="450" width="40" height="30" as="geometry" />
        </mxCell>
        <mxCell id="01P3GvGtitKNu42vUklI-31" value="" style="childLayout=tableLayout;recursiveResize=0;shadow=0;fillColor=none;" vertex="1" parent="1">
          <mxGeometry x="-750" y="480" width="360" height="50" as="geometry" />
        </mxCell>
        <mxCell id="01P3GvGtitKNu42vUklI-32" value="" style="shape=tableRow;horizontal=0;startSize=0;swimlaneHead=0;swimlaneBody=0;top=0;left=0;bottom=0;right=0;dropTarget=0;collapsible=0;recursiveResize=0;expand=0;fontStyle=0;fillColor=none;strokeColor=inherit;" vertex="1" parent="01P3GvGtitKNu42vUklI-31">
          <mxGeometry width="360" height="50" as="geometry" />
        </mxCell>
        <mxCell id="01P3GvGtitKNu42vUklI-33" value="&lt;u&gt;ID&lt;/u&gt;" style="connectable=0;recursiveResize=0;strokeColor=inherit;fillColor=none;align=center;whiteSpace=wrap;html=1;" vertex="1" parent="01P3GvGtitKNu42vUklI-32">
          <mxGeometry width="60" height="50" as="geometry">
            <mxRectangle width="60" height="50" as="alternateBounds" />
          </mxGeometry>
        </mxCell>
        <mxCell id="01P3GvGtitKNu42vUklI-34" value="Password" style="connectable=0;recursiveResize=0;strokeColor=inherit;fillColor=none;align=center;whiteSpace=wrap;html=1;" vertex="1" parent="01P3GvGtitKNu42vUklI-32">
          <mxGeometry x="60" width="60" height="50" as="geometry">
            <mxRectangle width="60" height="50" as="alternateBounds" />
          </mxGeometry>
        </mxCell>
        <mxCell id="01P3GvGtitKNu42vUklI-35" value="Name" style="connectable=0;recursiveResize=0;strokeColor=inherit;fillColor=none;align=center;whiteSpace=wrap;html=1;" vertex="1" parent="01P3GvGtitKNu42vUklI-32">
          <mxGeometry x="120" width="60" height="50" as="geometry">
            <mxRectangle width="60" height="50" as="alternateBounds" />
          </mxGeometry>
        </mxCell>
        <mxCell id="01P3GvGtitKNu42vUklI-36" value="email" style="connectable=0;recursiveResize=0;strokeColor=inherit;fillColor=none;align=center;whiteSpace=wrap;html=1;" vertex="1" parent="01P3GvGtitKNu42vUklI-32">
          <mxGeometry x="180" width="60" height="50" as="geometry">
            <mxRectangle width="60" height="50" as="alternateBounds" />
          </mxGeometry>
        </mxCell>
        <mxCell id="01P3GvGtitKNu42vUklI-37" value="Office Room" style="connectable=0;recursiveResize=0;strokeColor=inherit;fillColor=none;align=center;whiteSpace=wrap;html=1;" vertex="1" parent="01P3GvGtitKNu42vUklI-32">
          <mxGeometry x="240" width="60" height="50" as="geometry">
            <mxRectangle width="60" height="50" as="alternateBounds" />
          </mxGeometry>
        </mxCell>
        <mxCell id="01P3GvGtitKNu42vUklI-38" value="Quota" style="connectable=0;recursiveResize=0;strokeColor=inherit;fillColor=none;align=center;whiteSpace=wrap;html=1;" vertex="1" parent="01P3GvGtitKNu42vUklI-32">
          <mxGeometry x="300" width="60" height="50" as="geometry">
            <mxRectangle width="60" height="50" as="alternateBounds" />
          </mxGeometry>
        </mxCell>
        <mxCell id="01P3GvGtitKNu42vUklI-39" value="Professor" style="text;html=1;align=center;verticalAlign=middle;whiteSpace=wrap;rounded=0;" vertex="1" parent="1">
          <mxGeometry x="-750" y="580" width="60" height="30" as="geometry" />
        </mxCell>
        <mxCell id="01P3GvGtitKNu42vUklI-40" value="" style="childLayout=tableLayout;recursiveResize=0;shadow=0;fillColor=none;" vertex="1" parent="1">
          <mxGeometry x="-750" y="610" width="300" height="50" as="geometry" />
        </mxCell>
        <mxCell id="01P3GvGtitKNu42vUklI-41" value="" style="shape=tableRow;horizontal=0;startSize=0;swimlaneHead=0;swimlaneBody=0;top=0;left=0;bottom=0;right=0;dropTarget=0;collapsible=0;recursiveResize=0;expand=0;fontStyle=0;fillColor=none;strokeColor=inherit;" vertex="1" parent="01P3GvGtitKNu42vUklI-40">
          <mxGeometry width="300" height="50" as="geometry" />
        </mxCell>
        <mxCell id="01P3GvGtitKNu42vUklI-42" value="&lt;u&gt;ID&lt;/u&gt;" style="connectable=0;recursiveResize=0;strokeColor=inherit;fillColor=none;align=center;whiteSpace=wrap;html=1;" vertex="1" parent="01P3GvGtitKNu42vUklI-41">
          <mxGeometry width="60" height="50" as="geometry">
            <mxRectangle width="60" height="50" as="alternateBounds" />
          </mxGeometry>
        </mxCell>
        <mxCell id="01P3GvGtitKNu42vUklI-43" value="Password" style="connectable=0;recursiveResize=0;strokeColor=inherit;fillColor=none;align=center;whiteSpace=wrap;html=1;" vertex="1" parent="01P3GvGtitKNu42vUklI-41">
          <mxGeometry x="60" width="60" height="50" as="geometry">
            <mxRectangle width="60" height="50" as="alternateBounds" />
          </mxGeometry>
        </mxCell>
        <mxCell id="01P3GvGtitKNu42vUklI-44" value="Name" style="connectable=0;recursiveResize=0;strokeColor=inherit;fillColor=none;align=center;whiteSpace=wrap;html=1;" vertex="1" parent="01P3GvGtitKNu42vUklI-41">
          <mxGeometry x="120" width="60" height="50" as="geometry">
            <mxRectangle width="60" height="50" as="alternateBounds" />
          </mxGeometry>
        </mxCell>
        <mxCell id="01P3GvGtitKNu42vUklI-45" value="email" style="connectable=0;recursiveResize=0;strokeColor=inherit;fillColor=none;align=center;whiteSpace=wrap;html=1;" vertex="1" parent="01P3GvGtitKNu42vUklI-41">
          <mxGeometry x="180" width="60" height="50" as="geometry">
            <mxRectangle width="60" height="50" as="alternateBounds" />
          </mxGeometry>
        </mxCell>
        <mxCell id="01P3GvGtitKNu42vUklI-46" value="Office Room" style="connectable=0;recursiveResize=0;strokeColor=inherit;fillColor=none;align=center;whiteSpace=wrap;html=1;" vertex="1" parent="01P3GvGtitKNu42vUklI-41">
          <mxGeometry x="240" width="60" height="50" as="geometry">
            <mxRectangle width="60" height="50" as="alternateBounds" />
          </mxGeometry>
        </mxCell>
        <mxCell id="01P3GvGtitKNu42vUklI-48" value="Student" style="text;html=1;align=center;verticalAlign=middle;whiteSpace=wrap;rounded=0;" vertex="1" parent="1">
          <mxGeometry x="-750" y="700" width="50" height="30" as="geometry" />
        </mxCell>
        <mxCell id="01P3GvGtitKNu42vUklI-49" value="" style="childLayout=tableLayout;recursiveResize=0;shadow=0;fillColor=none;" vertex="1" parent="1">
          <mxGeometry x="-750" y="730" width="300" height="50" as="geometry" />
        </mxCell>
        <mxCell id="01P3GvGtitKNu42vUklI-50" value="" style="shape=tableRow;horizontal=0;startSize=0;swimlaneHead=0;swimlaneBody=0;top=0;left=0;bottom=0;right=0;dropTarget=0;collapsible=0;recursiveResize=0;expand=0;fontStyle=0;fillColor=none;strokeColor=inherit;" vertex="1" parent="01P3GvGtitKNu42vUklI-49">
          <mxGeometry width="300" height="50" as="geometry" />
        </mxCell>
        <mxCell id="01P3GvGtitKNu42vUklI-51" value="&lt;u&gt;ID&lt;/u&gt;" style="connectable=0;recursiveResize=0;strokeColor=inherit;fillColor=none;align=center;whiteSpace=wrap;html=1;" vertex="1" parent="01P3GvGtitKNu42vUklI-50">
          <mxGeometry width="60" height="50" as="geometry">
            <mxRectangle width="60" height="50" as="alternateBounds" />
          </mxGeometry>
        </mxCell>
        <mxCell id="01P3GvGtitKNu42vUklI-52" value="Password" style="connectable=0;recursiveResize=0;strokeColor=inherit;fillColor=none;align=center;whiteSpace=wrap;html=1;" vertex="1" parent="01P3GvGtitKNu42vUklI-50">
          <mxGeometry x="60" width="60" height="50" as="geometry">
            <mxRectangle width="60" height="50" as="alternateBounds" />
          </mxGeometry>
        </mxCell>
        <mxCell id="01P3GvGtitKNu42vUklI-53" value="Name" style="connectable=0;recursiveResize=0;strokeColor=inherit;fillColor=none;align=center;whiteSpace=wrap;html=1;" vertex="1" parent="01P3GvGtitKNu42vUklI-50">
          <mxGeometry x="120" width="60" height="50" as="geometry">
            <mxRectangle width="60" height="50" as="alternateBounds" />
          </mxGeometry>
        </mxCell>
        <mxCell id="01P3GvGtitKNu42vUklI-54" value="email" style="connectable=0;recursiveResize=0;strokeColor=inherit;fillColor=none;align=center;whiteSpace=wrap;html=1;" vertex="1" parent="01P3GvGtitKNu42vUklI-50">
          <mxGeometry x="180" width="60" height="50" as="geometry">
            <mxRectangle width="60" height="50" as="alternateBounds" />
          </mxGeometry>
        </mxCell>
        <mxCell id="01P3GvGtitKNu42vUklI-56" value="Quota" style="connectable=0;recursiveResize=0;strokeColor=inherit;fillColor=none;align=center;whiteSpace=wrap;html=1;" vertex="1" parent="01P3GvGtitKNu42vUklI-50">
          <mxGeometry x="240" width="60" height="50" as="geometry">
            <mxRectangle width="60" height="50" as="alternateBounds" />
          </mxGeometry>
        </mxCell>
        <mxCell id="01P3GvGtitKNu42vUklI-57" value="" style="childLayout=tableLayout;recursiveResize=0;shadow=0;fillColor=none;" vertex="1" parent="1">
          <mxGeometry x="-750" y="860" width="240" height="50" as="geometry" />
        </mxCell>
        <mxCell id="01P3GvGtitKNu42vUklI-58" value="" style="shape=tableRow;horizontal=0;startSize=0;swimlaneHead=0;swimlaneBody=0;top=0;left=0;bottom=0;right=0;dropTarget=0;collapsible=0;recursiveResize=0;expand=0;fontStyle=0;fillColor=none;strokeColor=inherit;" vertex="1" parent="01P3GvGtitKNu42vUklI-57">
          <mxGeometry width="240" height="50" as="geometry" />
        </mxCell>
        <mxCell id="01P3GvGtitKNu42vUklI-59" value="&lt;u&gt;ID&lt;/u&gt;" style="connectable=0;recursiveResize=0;strokeColor=inherit;fillColor=none;align=center;whiteSpace=wrap;html=1;" vertex="1" parent="01P3GvGtitKNu42vUklI-58">
          <mxGeometry width="60" height="50" as="geometry">
            <mxRectangle width="60" height="50" as="alternateBounds" />
          </mxGeometry>
        </mxCell>
        <mxCell id="01P3GvGtitKNu42vUklI-60" value="Password" style="connectable=0;recursiveResize=0;strokeColor=inherit;fillColor=none;align=center;whiteSpace=wrap;html=1;" vertex="1" parent="01P3GvGtitKNu42vUklI-58">
          <mxGeometry x="60" width="60" height="50" as="geometry">
            <mxRectangle width="60" height="50" as="alternateBounds" />
          </mxGeometry>
        </mxCell>
        <mxCell id="01P3GvGtitKNu42vUklI-61" value="Name" style="connectable=0;recursiveResize=0;strokeColor=inherit;fillColor=none;align=center;whiteSpace=wrap;html=1;" vertex="1" parent="01P3GvGtitKNu42vUklI-58">
          <mxGeometry x="120" width="60" height="50" as="geometry">
            <mxRectangle width="60" height="50" as="alternateBounds" />
          </mxGeometry>
        </mxCell>
        <mxCell id="01P3GvGtitKNu42vUklI-62" value="email" style="connectable=0;recursiveResize=0;strokeColor=inherit;fillColor=none;align=center;whiteSpace=wrap;html=1;" vertex="1" parent="01P3GvGtitKNu42vUklI-58">
          <mxGeometry x="180" width="60" height="50" as="geometry">
            <mxRectangle width="60" height="50" as="alternateBounds" />
          </mxGeometry>
        </mxCell>
        <mxCell id="01P3GvGtitKNu42vUklI-63" value="Admin" style="text;html=1;align=center;verticalAlign=middle;whiteSpace=wrap;rounded=0;" vertex="1" parent="1">
          <mxGeometry x="-750" y="830" width="50" height="30" as="geometry" />
        </mxCell>
        <mxCell id="01P3GvGtitKNu42vUklI-64" value="" style="childLayout=tableLayout;recursiveResize=0;shadow=0;fillColor=none;" vertex="1" parent="1">
          <mxGeometry x="-750" y="990" width="660" height="50" as="geometry" />
        </mxCell>
        <mxCell id="01P3GvGtitKNu42vUklI-65" value="" style="shape=tableRow;horizontal=0;startSize=0;swimlaneHead=0;swimlaneBody=0;top=0;left=0;bottom=0;right=0;dropTarget=0;collapsible=0;recursiveResize=0;expand=0;fontStyle=0;fillColor=none;strokeColor=inherit;" vertex="1" parent="01P3GvGtitKNu42vUklI-64">
          <mxGeometry width="660" height="50" as="geometry" />
        </mxCell>
        <mxCell id="01P3GvGtitKNu42vUklI-66" value="&lt;u&gt;Course Code&lt;/u&gt;" style="connectable=0;recursiveResize=0;strokeColor=inherit;fillColor=none;align=center;whiteSpace=wrap;html=1;" vertex="1" parent="01P3GvGtitKNu42vUklI-65">
          <mxGeometry width="60" height="50" as="geometry">
            <mxRectangle width="60" height="50" as="alternateBounds" />
          </mxGeometry>
        </mxCell>
        <mxCell id="01P3GvGtitKNu42vUklI-67" value="Course Name" style="connectable=0;recursiveResize=0;strokeColor=inherit;fillColor=none;align=center;whiteSpace=wrap;html=1;" vertex="1" parent="01P3GvGtitKNu42vUklI-65">
          <mxGeometry x="60" width="60" height="50" as="geometry">
            <mxRectangle width="60" height="50" as="alternateBounds" />
          </mxGeometry>
        </mxCell>
        <mxCell id="01P3GvGtitKNu42vUklI-68" value="Professor" style="connectable=0;recursiveResize=0;strokeColor=inherit;fillColor=none;align=center;whiteSpace=wrap;html=1;" vertex="1" parent="01P3GvGtitKNu42vUklI-65">
          <mxGeometry x="120" width="60" height="50" as="geometry">
            <mxRectangle width="60" height="50" as="alternateBounds" />
          </mxGeometry>
        </mxCell>
        <mxCell id="01P3GvGtitKNu42vUklI-71" value="Lecture Room" style="connectable=0;recursiveResize=0;strokeColor=inherit;fillColor=none;align=center;whiteSpace=wrap;html=1;" vertex="1" parent="01P3GvGtitKNu42vUklI-65">
          <mxGeometry x="180" width="60" height="50" as="geometry">
            <mxRectangle width="60" height="50" as="alternateBounds" />
          </mxGeometry>
        </mxCell>
        <mxCell id="01P3GvGtitKNu42vUklI-72" value="Lecture Day" style="connectable=0;recursiveResize=0;strokeColor=inherit;fillColor=none;align=center;whiteSpace=wrap;html=1;" vertex="1" parent="01P3GvGtitKNu42vUklI-65">
          <mxGeometry x="240" width="60" height="50" as="geometry">
            <mxRectangle width="60" height="50" as="alternateBounds" />
          </mxGeometry>
        </mxCell>
        <mxCell id="01P3GvGtitKNu42vUklI-79" value="Lecture Hour" style="connectable=0;recursiveResize=0;strokeColor=inherit;fillColor=none;align=center;whiteSpace=wrap;html=1;" vertex="1" parent="01P3GvGtitKNu42vUklI-65">
          <mxGeometry x="300" width="60" height="50" as="geometry">
            <mxRectangle width="60" height="50" as="alternateBounds" />
          </mxGeometry>
        </mxCell>
        <mxCell id="01P3GvGtitKNu42vUklI-78" value="Lecture Duration" style="connectable=0;recursiveResize=0;strokeColor=inherit;fillColor=none;align=center;whiteSpace=wrap;html=1;" vertex="1" parent="01P3GvGtitKNu42vUklI-65">
          <mxGeometry x="360" width="60" height="50" as="geometry">
            <mxRectangle width="60" height="50" as="alternateBounds" />
          </mxGeometry>
        </mxCell>
        <mxCell id="01P3GvGtitKNu42vUklI-77" value="Tutorial Room" style="connectable=0;recursiveResize=0;strokeColor=inherit;fillColor=none;align=center;whiteSpace=wrap;html=1;" vertex="1" parent="01P3GvGtitKNu42vUklI-65">
          <mxGeometry x="420" width="60" height="50" as="geometry">
            <mxRectangle width="60" height="50" as="alternateBounds" />
          </mxGeometry>
        </mxCell>
        <mxCell id="01P3GvGtitKNu42vUklI-76" value="Tutorial Day" style="connectable=0;recursiveResize=0;strokeColor=inherit;fillColor=none;align=center;whiteSpace=wrap;html=1;" vertex="1" parent="01P3GvGtitKNu42vUklI-65">
          <mxGeometry x="480" width="60" height="50" as="geometry">
            <mxRectangle width="60" height="50" as="alternateBounds" />
          </mxGeometry>
        </mxCell>
        <mxCell id="01P3GvGtitKNu42vUklI-73" value="Tutorial Hour" style="connectable=0;recursiveResize=0;strokeColor=inherit;fillColor=none;align=center;whiteSpace=wrap;html=1;" vertex="1" parent="01P3GvGtitKNu42vUklI-65">
          <mxGeometry x="540" width="60" height="50" as="geometry">
            <mxRectangle width="60" height="50" as="alternateBounds" />
          </mxGeometry>
        </mxCell>
        <mxCell id="01P3GvGtitKNu42vUklI-74" value="Tutorial Duration" style="connectable=0;recursiveResize=0;strokeColor=inherit;fillColor=none;align=center;whiteSpace=wrap;html=1;" vertex="1" parent="01P3GvGtitKNu42vUklI-65">
          <mxGeometry x="600" width="60" height="50" as="geometry">
            <mxRectangle width="60" height="50" as="alternateBounds" />
          </mxGeometry>
        </mxCell>
        <mxCell id="01P3GvGtitKNu42vUklI-75" value="Course" style="text;html=1;align=center;verticalAlign=middle;whiteSpace=wrap;rounded=0;" vertex="1" parent="1">
          <mxGeometry x="-750" y="960" width="60" height="30" as="geometry" />
        </mxCell>
        <mxCell id="01P3GvGtitKNu42vUklI-96" value="" style="childLayout=tableLayout;recursiveResize=0;shadow=0;fillColor=none;" vertex="1" parent="1">
          <mxGeometry x="-750" y="1119" width="140" height="50" as="geometry" />
        </mxCell>
        <mxCell id="01P3GvGtitKNu42vUklI-97" value="" style="shape=tableRow;horizontal=0;startSize=0;swimlaneHead=0;swimlaneBody=0;top=0;left=0;bottom=0;right=0;dropTarget=0;collapsible=0;recursiveResize=0;expand=0;fontStyle=0;fillColor=none;strokeColor=inherit;" vertex="1" parent="01P3GvGtitKNu42vUklI-96">
          <mxGeometry width="140" height="50" as="geometry" />
        </mxCell>
        <mxCell id="01P3GvGtitKNu42vUklI-98" value="&lt;u&gt;Student_ID&lt;/u&gt;" style="connectable=0;recursiveResize=0;strokeColor=inherit;fillColor=none;align=center;whiteSpace=wrap;html=1;" vertex="1" parent="01P3GvGtitKNu42vUklI-97">
          <mxGeometry width="70" height="50" as="geometry">
            <mxRectangle width="70" height="50" as="alternateBounds" />
          </mxGeometry>
        </mxCell>
        <mxCell id="01P3GvGtitKNu42vUklI-99" value="&lt;u style=&quot;background-color: light-dark(#ffffff, var(--ge-dark-color, #121212));&quot;&gt;Course_ID&lt;/u&gt;" style="connectable=0;recursiveResize=0;strokeColor=inherit;fillColor=none;align=center;whiteSpace=wrap;html=1;" vertex="1" parent="01P3GvGtitKNu42vUklI-97">
          <mxGeometry x="70" width="70" height="50" as="geometry">
            <mxRectangle width="70" height="50" as="alternateBounds" />
          </mxGeometry>
        </mxCell>
        <mxCell id="01P3GvGtitKNu42vUklI-102" value="Course/Student" style="text;html=1;align=center;verticalAlign=middle;whiteSpace=wrap;rounded=0;" vertex="1" parent="1">
          <mxGeometry x="-750" y="1089" width="90" height="30" as="geometry" />
        </mxCell>
        <mxCell id="01P3GvGtitKNu42vUklI-103" value="" style="childLayout=tableLayout;recursiveResize=0;shadow=0;fillColor=none;" vertex="1" parent="1">
          <mxGeometry x="-520" y="1119" width="140" height="50" as="geometry" />
        </mxCell>
        <mxCell id="01P3GvGtitKNu42vUklI-104" value="" style="shape=tableRow;horizontal=0;startSize=0;swimlaneHead=0;swimlaneBody=0;top=0;left=0;bottom=0;right=0;dropTarget=0;collapsible=0;recursiveResize=0;expand=0;fontStyle=0;fillColor=none;strokeColor=inherit;" vertex="1" parent="01P3GvGtitKNu42vUklI-103">
          <mxGeometry width="140" height="50" as="geometry" />
        </mxCell>
        <mxCell id="01P3GvGtitKNu42vUklI-105" value="&lt;u&gt;Student_ID&lt;/u&gt;" style="connectable=0;recursiveResize=0;strokeColor=inherit;fillColor=none;align=center;whiteSpace=wrap;html=1;" vertex="1" parent="01P3GvGtitKNu42vUklI-104">
          <mxGeometry width="70" height="50" as="geometry">
            <mxRectangle width="70" height="50" as="alternateBounds" />
          </mxGeometry>
        </mxCell>
        <mxCell id="01P3GvGtitKNu42vUklI-106" value="&lt;u style=&quot;background-color: light-dark(#ffffff, var(--ge-dark-color, #121212));&quot;&gt;Course_ID&lt;/u&gt;" style="connectable=0;recursiveResize=0;strokeColor=inherit;fillColor=none;align=center;whiteSpace=wrap;html=1;" vertex="1" parent="01P3GvGtitKNu42vUklI-104">
          <mxGeometry x="70" width="70" height="50" as="geometry">
            <mxRectangle width="70" height="50" as="alternateBounds" />
          </mxGeometry>
        </mxCell>
        <mxCell id="01P3GvGtitKNu42vUklI-107" value="JTA" style="text;html=1;align=center;verticalAlign=middle;whiteSpace=wrap;rounded=0;" vertex="1" parent="1">
          <mxGeometry x="-520" y="1089" width="40" height="30" as="geometry" />
        </mxCell>
        <mxCell id="01P3GvGtitKNu42vUklI-108" value="" style="childLayout=tableLayout;recursiveResize=0;shadow=0;fillColor=none;" vertex="1" parent="1">
          <mxGeometry x="-280" y="1119" width="140" height="50" as="geometry" />
        </mxCell>
        <mxCell id="01P3GvGtitKNu42vUklI-109" value="" style="shape=tableRow;horizontal=0;startSize=0;swimlaneHead=0;swimlaneBody=0;top=0;left=0;bottom=0;right=0;dropTarget=0;collapsible=0;recursiveResize=0;expand=0;fontStyle=0;fillColor=none;strokeColor=inherit;" vertex="1" parent="01P3GvGtitKNu42vUklI-108">
          <mxGeometry width="140" height="50" as="geometry" />
        </mxCell>
        <mxCell id="01P3GvGtitKNu42vUklI-110" value="&lt;u&gt;TA_ID&lt;/u&gt;" style="connectable=0;recursiveResize=0;strokeColor=inherit;fillColor=none;align=center;whiteSpace=wrap;html=1;" vertex="1" parent="01P3GvGtitKNu42vUklI-109">
          <mxGeometry width="70" height="50" as="geometry">
            <mxRectangle width="70" height="50" as="alternateBounds" />
          </mxGeometry>
        </mxCell>
        <mxCell id="01P3GvGtitKNu42vUklI-111" value="&lt;u style=&quot;background-color: light-dark(#ffffff, var(--ge-dark-color, #121212));&quot;&gt;Course_ID&lt;/u&gt;" style="connectable=0;recursiveResize=0;strokeColor=inherit;fillColor=none;align=center;whiteSpace=wrap;html=1;" vertex="1" parent="01P3GvGtitKNu42vUklI-109">
          <mxGeometry x="70" width="70" height="50" as="geometry">
            <mxRectangle width="70" height="50" as="alternateBounds" />
          </mxGeometry>
        </mxCell>
        <mxCell id="01P3GvGtitKNu42vUklI-112" value="Course/TA" style="text;html=1;align=center;verticalAlign=middle;whiteSpace=wrap;rounded=0;" vertex="1" parent="1">
          <mxGeometry x="-280" y="1089" width="90" height="30" as="geometry" />
        </mxCell>
        <mxCell id="01P3GvGtitKNu42vUklI-113" value="" style="childLayout=tableLayout;recursiveResize=0;shadow=0;fillColor=none;" vertex="1" parent="1">
          <mxGeometry x="-750" y="1250" width="533" height="50" as="geometry" />
        </mxCell>
        <mxCell id="01P3GvGtitKNu42vUklI-114" value="" style="shape=tableRow;horizontal=0;startSize=0;swimlaneHead=0;swimlaneBody=0;top=0;left=0;bottom=0;right=0;dropTarget=0;collapsible=0;recursiveResize=0;expand=0;fontStyle=0;fillColor=none;strokeColor=inherit;" vertex="1" parent="01P3GvGtitKNu42vUklI-113">
          <mxGeometry width="533" height="50" as="geometry" />
        </mxCell>
        <mxCell id="01P3GvGtitKNu42vUklI-115" value="&lt;u&gt;Room ID&lt;/u&gt;" style="connectable=0;recursiveResize=0;strokeColor=inherit;fillColor=none;align=center;whiteSpace=wrap;html=1;" vertex="1" parent="01P3GvGtitKNu42vUklI-114">
          <mxGeometry width="67" height="50" as="geometry">
            <mxRectangle width="67" height="50" as="alternateBounds" />
          </mxGeometry>
        </mxCell>
        <mxCell id="01P3GvGtitKNu42vUklI-116" value="Building" style="connectable=0;recursiveResize=0;strokeColor=inherit;fillColor=none;align=center;whiteSpace=wrap;html=1;" vertex="1" parent="01P3GvGtitKNu42vUklI-114">
          <mxGeometry x="67" width="66" height="50" as="geometry">
            <mxRectangle width="66" height="50" as="alternateBounds" />
          </mxGeometry>
        </mxCell>
        <mxCell id="01P3GvGtitKNu42vUklI-117" value="Floor" style="connectable=0;recursiveResize=0;strokeColor=inherit;fillColor=none;align=center;whiteSpace=wrap;html=1;" vertex="1" parent="01P3GvGtitKNu42vUklI-114">
          <mxGeometry x="133" width="67" height="50" as="geometry">
            <mxRectangle width="67" height="50" as="alternateBounds" />
          </mxGeometry>
        </mxCell>
        <mxCell id="01P3GvGtitKNu42vUklI-118" value="Zone" style="connectable=0;recursiveResize=0;strokeColor=inherit;fillColor=none;align=center;whiteSpace=wrap;html=1;" vertex="1" parent="01P3GvGtitKNu42vUklI-114">
          <mxGeometry x="200" width="67" height="50" as="geometry">
            <mxRectangle width="67" height="50" as="alternateBounds" />
          </mxGeometry>
        </mxCell>
        <mxCell id="01P3GvGtitKNu42vUklI-119" value="Room Number" style="connectable=0;recursiveResize=0;strokeColor=inherit;fillColor=none;align=center;whiteSpace=wrap;html=1;" vertex="1" parent="01P3GvGtitKNu42vUklI-114">
          <mxGeometry x="267" width="66" height="50" as="geometry">
            <mxRectangle width="66" height="50" as="alternateBounds" />
          </mxGeometry>
        </mxCell>
        <mxCell id="01P3GvGtitKNu42vUklI-120" value="Capacity" style="connectable=0;recursiveResize=0;strokeColor=inherit;fillColor=none;align=center;whiteSpace=wrap;html=1;" vertex="1" parent="01P3GvGtitKNu42vUklI-114">
          <mxGeometry x="333" width="67" height="50" as="geometry">
            <mxRectangle width="67" height="50" as="alternateBounds" />
          </mxGeometry>
        </mxCell>
        <mxCell id="01P3GvGtitKNu42vUklI-121" value="Availability Status" style="connectable=0;recursiveResize=0;strokeColor=inherit;fillColor=none;align=center;whiteSpace=wrap;html=1;" vertex="1" parent="01P3GvGtitKNu42vUklI-114">
          <mxGeometry x="400" width="67" height="50" as="geometry">
            <mxRectangle width="67" height="50" as="alternateBounds" />
          </mxGeometry>
        </mxCell>
        <mxCell id="01P3GvGtitKNu42vUklI-124" value="Daily Cleaning Status" style="connectable=0;recursiveResize=0;strokeColor=inherit;fillColor=none;align=center;whiteSpace=wrap;html=1;" vertex="1" parent="01P3GvGtitKNu42vUklI-114">
          <mxGeometry x="467" width="66" height="50" as="geometry">
            <mxRectangle width="66" height="50" as="alternateBounds" />
          </mxGeometry>
        </mxCell>
        <mxCell id="01P3GvGtitKNu42vUklI-123" value="Room" style="text;html=1;align=center;verticalAlign=middle;whiteSpace=wrap;rounded=0;" vertex="1" parent="1">
          <mxGeometry x="-755" y="1220" width="50" height="30" as="geometry" />
        </mxCell>
        <mxCell id="01P3GvGtitKNu42vUklI-125" value="" style="childLayout=tableLayout;recursiveResize=0;shadow=0;fillColor=none;" vertex="1" parent="1">
          <mxGeometry x="-750" y="1380" width="780" height="50" as="geometry" />
        </mxCell>
        <mxCell id="01P3GvGtitKNu42vUklI-126" value="" style="shape=tableRow;horizontal=0;startSize=0;swimlaneHead=0;swimlaneBody=0;top=0;left=0;bottom=0;right=0;dropTarget=0;collapsible=0;recursiveResize=0;expand=0;fontStyle=0;fillColor=none;strokeColor=inherit;" vertex="1" parent="01P3GvGtitKNu42vUklI-125">
          <mxGeometry width="780" height="50" as="geometry" />
        </mxCell>
        <mxCell id="01P3GvGtitKNu42vUklI-127" value="&lt;u&gt;Booking ID&lt;/u&gt;" style="connectable=0;recursiveResize=0;strokeColor=inherit;fillColor=none;align=center;whiteSpace=wrap;html=1;" vertex="1" parent="01P3GvGtitKNu42vUklI-126">
          <mxGeometry width="60" height="50" as="geometry">
            <mxRectangle width="60" height="50" as="alternateBounds" />
          </mxGeometry>
        </mxCell>
        <mxCell id="01P3GvGtitKNu42vUklI-128" value="Room ID" style="connectable=0;recursiveResize=0;strokeColor=inherit;fillColor=none;align=center;whiteSpace=wrap;html=1;" vertex="1" parent="01P3GvGtitKNu42vUklI-126">
          <mxGeometry x="60" width="60" height="50" as="geometry">
            <mxRectangle width="60" height="50" as="alternateBounds" />
          </mxGeometry>
        </mxCell>
        <mxCell id="01P3GvGtitKNu42vUklI-129" value="User ID" style="connectable=0;recursiveResize=0;strokeColor=inherit;fillColor=none;align=center;whiteSpace=wrap;html=1;" vertex="1" parent="01P3GvGtitKNu42vUklI-126">
          <mxGeometry x="120" width="60" height="50" as="geometry">
            <mxRectangle width="60" height="50" as="alternateBounds" />
          </mxGeometry>
        </mxCell>
        <mxCell id="01P3GvGtitKNu42vUklI-130" value="Reason" style="connectable=0;recursiveResize=0;strokeColor=inherit;fillColor=none;align=center;whiteSpace=wrap;html=1;" vertex="1" parent="01P3GvGtitKNu42vUklI-126">
          <mxGeometry x="180" width="60" height="50" as="geometry">
            <mxRectangle width="60" height="50" as="alternateBounds" />
          </mxGeometry>
        </mxCell>
        <mxCell id="01P3GvGtitKNu42vUklI-131" value="Time Slot&lt;div&gt;Day&lt;/div&gt;" style="connectable=0;recursiveResize=0;strokeColor=inherit;fillColor=none;align=center;whiteSpace=wrap;html=1;" vertex="1" parent="01P3GvGtitKNu42vUklI-126">
          <mxGeometry x="240" width="60" height="50" as="geometry">
            <mxRectangle width="60" height="50" as="alternateBounds" />
          </mxGeometry>
        </mxCell>
        <mxCell id="01P3GvGtitKNu42vUklI-135" value="Time Slot Hour" style="connectable=0;recursiveResize=0;strokeColor=inherit;fillColor=none;align=center;whiteSpace=wrap;html=1;" vertex="1" parent="01P3GvGtitKNu42vUklI-126">
          <mxGeometry x="300" width="60" height="50" as="geometry">
            <mxRectangle width="60" height="50" as="alternateBounds" />
          </mxGeometry>
        </mxCell>
        <mxCell id="01P3GvGtitKNu42vUklI-136" value="Duration" style="connectable=0;recursiveResize=0;strokeColor=inherit;fillColor=none;align=center;whiteSpace=wrap;html=1;" vertex="1" parent="01P3GvGtitKNu42vUklI-126">
          <mxGeometry x="360" width="60" height="50" as="geometry">
            <mxRectangle width="60" height="50" as="alternateBounds" />
          </mxGeometry>
        </mxCell>
        <mxCell id="01P3GvGtitKNu42vUklI-132" value="Course" style="connectable=0;recursiveResize=0;strokeColor=inherit;fillColor=none;align=center;whiteSpace=wrap;html=1;" vertex="1" parent="01P3GvGtitKNu42vUklI-126">
          <mxGeometry x="420" width="60" height="50" as="geometry">
            <mxRectangle width="60" height="50" as="alternateBounds" />
          </mxGeometry>
        </mxCell>
        <mxCell id="01P3GvGtitKNu42vUklI-133" value="Condition" style="connectable=0;recursiveResize=0;strokeColor=inherit;fillColor=none;align=center;whiteSpace=wrap;html=1;" vertex="1" parent="01P3GvGtitKNu42vUklI-126">
          <mxGeometry x="480" width="60" height="50" as="geometry">
            <mxRectangle width="60" height="50" as="alternateBounds" />
          </mxGeometry>
        </mxCell>
        <mxCell id="01P3GvGtitKNu42vUklI-140" value="Day of Request" style="connectable=0;recursiveResize=0;strokeColor=inherit;fillColor=none;align=center;whiteSpace=wrap;html=1;" vertex="1" parent="01P3GvGtitKNu42vUklI-126">
          <mxGeometry x="540" width="60" height="50" as="geometry">
            <mxRectangle width="60" height="50" as="alternateBounds" />
          </mxGeometry>
        </mxCell>
        <mxCell id="01P3GvGtitKNu42vUklI-139" value="Hour of Request" style="connectable=0;recursiveResize=0;strokeColor=inherit;fillColor=none;align=center;whiteSpace=wrap;html=1;" vertex="1" parent="01P3GvGtitKNu42vUklI-126">
          <mxGeometry x="600" width="60" height="50" as="geometry">
            <mxRectangle width="60" height="50" as="alternateBounds" />
          </mxGeometry>
        </mxCell>
        <mxCell id="01P3GvGtitKNu42vUklI-138" value="Day of Handling" style="connectable=0;recursiveResize=0;strokeColor=inherit;fillColor=none;align=center;whiteSpace=wrap;html=1;" vertex="1" parent="01P3GvGtitKNu42vUklI-126">
          <mxGeometry x="660" width="60" height="50" as="geometry">
            <mxRectangle width="60" height="50" as="alternateBounds" />
          </mxGeometry>
        </mxCell>
        <mxCell id="01P3GvGtitKNu42vUklI-137" value="Hour of Handling" style="connectable=0;recursiveResize=0;strokeColor=inherit;fillColor=none;align=center;whiteSpace=wrap;html=1;" vertex="1" parent="01P3GvGtitKNu42vUklI-126">
          <mxGeometry x="720" width="60" height="50" as="geometry">
            <mxRectangle width="60" height="50" as="alternateBounds" />
          </mxGeometry>
        </mxCell>
        <mxCell id="01P3GvGtitKNu42vUklI-134" value="Booking Request" style="text;html=1;align=center;verticalAlign=middle;whiteSpace=wrap;rounded=0;" vertex="1" parent="1">
          <mxGeometry x="-750" y="1350" width="100" height="30" as="geometry" />
        </mxCell>
        <mxCell id="01P3GvGtitKNu42vUklI-149" value="" style="childLayout=tableLayout;recursiveResize=0;shadow=0;fillColor=none;" vertex="1" parent="1">
          <mxGeometry x="-750" y="1510" width="540" height="50" as="geometry" />
        </mxCell>
        <mxCell id="01P3GvGtitKNu42vUklI-150" value="" style="shape=tableRow;horizontal=0;startSize=0;swimlaneHead=0;swimlaneBody=0;top=0;left=0;bottom=0;right=0;dropTarget=0;collapsible=0;recursiveResize=0;expand=0;fontStyle=0;fillColor=none;strokeColor=inherit;" vertex="1" parent="01P3GvGtitKNu42vUklI-149">
          <mxGeometry width="540" height="50" as="geometry" />
        </mxCell>
        <mxCell id="01P3GvGtitKNu42vUklI-151" value="&lt;u&gt;Report ID&lt;/u&gt;" style="connectable=0;recursiveResize=0;strokeColor=inherit;fillColor=none;align=center;whiteSpace=wrap;html=1;" vertex="1" parent="01P3GvGtitKNu42vUklI-150">
          <mxGeometry width="60" height="50" as="geometry">
            <mxRectangle width="60" height="50" as="alternateBounds" />
          </mxGeometry>
        </mxCell>
        <mxCell id="01P3GvGtitKNu42vUklI-152" value="Room ID" style="connectable=0;recursiveResize=0;strokeColor=inherit;fillColor=none;align=center;whiteSpace=wrap;html=1;" vertex="1" parent="01P3GvGtitKNu42vUklI-150">
          <mxGeometry x="60" width="60" height="50" as="geometry">
            <mxRectangle width="60" height="50" as="alternateBounds" />
          </mxGeometry>
        </mxCell>
        <mxCell id="01P3GvGtitKNu42vUklI-153" value="User ID" style="connectable=0;recursiveResize=0;strokeColor=inherit;fillColor=none;align=center;whiteSpace=wrap;html=1;" vertex="1" parent="01P3GvGtitKNu42vUklI-150">
          <mxGeometry x="120" width="60" height="50" as="geometry">
            <mxRectangle width="60" height="50" as="alternateBounds" />
          </mxGeometry>
        </mxCell>
        <mxCell id="01P3GvGtitKNu42vUklI-154" value="Complaint" style="connectable=0;recursiveResize=0;strokeColor=inherit;fillColor=none;align=center;whiteSpace=wrap;html=1;" vertex="1" parent="01P3GvGtitKNu42vUklI-150">
          <mxGeometry x="180" width="60" height="50" as="geometry">
            <mxRectangle width="60" height="50" as="alternateBounds" />
          </mxGeometry>
        </mxCell>
        <mxCell id="01P3GvGtitKNu42vUklI-155" value="Condition" style="connectable=0;recursiveResize=0;strokeColor=inherit;fillColor=none;align=center;whiteSpace=wrap;html=1;" vertex="1" parent="01P3GvGtitKNu42vUklI-150">
          <mxGeometry x="240" width="60" height="50" as="geometry">
            <mxRectangle width="60" height="50" as="alternateBounds" />
          </mxGeometry>
        </mxCell>
        <mxCell id="01P3GvGtitKNu42vUklI-160" value="Day of Report" style="connectable=0;recursiveResize=0;strokeColor=inherit;fillColor=none;align=center;whiteSpace=wrap;html=1;" vertex="1" parent="01P3GvGtitKNu42vUklI-150">
          <mxGeometry x="300" width="60" height="50" as="geometry">
            <mxRectangle width="60" height="50" as="alternateBounds" />
          </mxGeometry>
        </mxCell>
        <mxCell id="01P3GvGtitKNu42vUklI-159" value="Hour of Report" style="connectable=0;recursiveResize=0;strokeColor=inherit;fillColor=none;align=center;whiteSpace=wrap;html=1;" vertex="1" parent="01P3GvGtitKNu42vUklI-150">
          <mxGeometry x="360" width="60" height="50" as="geometry">
            <mxRectangle width="60" height="50" as="alternateBounds" />
          </mxGeometry>
        </mxCell>
        <mxCell id="01P3GvGtitKNu42vUklI-158" value="Day of Handling" style="connectable=0;recursiveResize=0;strokeColor=inherit;fillColor=none;align=center;whiteSpace=wrap;html=1;" vertex="1" parent="01P3GvGtitKNu42vUklI-150">
          <mxGeometry x="420" width="60" height="50" as="geometry">
            <mxRectangle width="60" height="50" as="alternateBounds" />
          </mxGeometry>
        </mxCell>
        <mxCell id="01P3GvGtitKNu42vUklI-157" value="Hour of Handling" style="connectable=0;recursiveResize=0;strokeColor=inherit;fillColor=none;align=center;whiteSpace=wrap;html=1;" vertex="1" parent="01P3GvGtitKNu42vUklI-150">
          <mxGeometry x="480" width="60" height="50" as="geometry">
            <mxRectangle width="60" height="50" as="alternateBounds" />
          </mxGeometry>
        </mxCell>
        <mxCell id="01P3GvGtitKNu42vUklI-156" value="Report" style="text;html=1;align=center;verticalAlign=middle;whiteSpace=wrap;rounded=0;" vertex="1" parent="1">
          <mxGeometry x="-750" y="1480" width="60" height="30" as="geometry" />
        </mxCell>
        <mxCell id="01P3GvGtitKNu42vUklI-161" value="" style="childLayout=tableLayout;recursiveResize=0;shadow=0;fillColor=none;" vertex="1" parent="1">
          <mxGeometry x="-750" y="1640" width="540" height="50" as="geometry" />
        </mxCell>
        <mxCell id="01P3GvGtitKNu42vUklI-162" value="" style="shape=tableRow;horizontal=0;startSize=0;swimlaneHead=0;swimlaneBody=0;top=0;left=0;bottom=0;right=0;dropTarget=0;collapsible=0;recursiveResize=0;expand=0;fontStyle=0;fillColor=none;strokeColor=inherit;" vertex="1" parent="01P3GvGtitKNu42vUklI-161">
          <mxGeometry width="540" height="50" as="geometry" />
        </mxCell>
        <mxCell id="01P3GvGtitKNu42vUklI-163" value="&lt;u&gt;Quota Request ID&lt;/u&gt;" style="connectable=0;recursiveResize=0;strokeColor=inherit;fillColor=none;align=center;whiteSpace=wrap;html=1;" vertex="1" parent="01P3GvGtitKNu42vUklI-162">
          <mxGeometry width="60" height="50" as="geometry">
            <mxRectangle width="60" height="50" as="alternateBounds" />
          </mxGeometry>
        </mxCell>
        <mxCell id="01P3GvGtitKNu42vUklI-164" value="User ID" style="connectable=0;recursiveResize=0;strokeColor=inherit;fillColor=none;align=center;whiteSpace=wrap;html=1;" vertex="1" parent="01P3GvGtitKNu42vUklI-162">
          <mxGeometry x="60" width="60" height="50" as="geometry">
            <mxRectangle width="60" height="50" as="alternateBounds" />
          </mxGeometry>
        </mxCell>
        <mxCell id="01P3GvGtitKNu42vUklI-165" value="Number of Hours" style="connectable=0;recursiveResize=0;strokeColor=inherit;fillColor=none;align=center;whiteSpace=wrap;html=1;" vertex="1" parent="01P3GvGtitKNu42vUklI-162">
          <mxGeometry x="120" width="60" height="50" as="geometry">
            <mxRectangle width="60" height="50" as="alternateBounds" />
          </mxGeometry>
        </mxCell>
        <mxCell id="01P3GvGtitKNu42vUklI-166" value="Reason" style="connectable=0;recursiveResize=0;strokeColor=inherit;fillColor=none;align=center;whiteSpace=wrap;html=1;" vertex="1" parent="01P3GvGtitKNu42vUklI-162">
          <mxGeometry x="180" width="60" height="50" as="geometry">
            <mxRectangle width="60" height="50" as="alternateBounds" />
          </mxGeometry>
        </mxCell>
        <mxCell id="01P3GvGtitKNu42vUklI-167" value="Condition" style="connectable=0;recursiveResize=0;strokeColor=inherit;fillColor=none;align=center;whiteSpace=wrap;html=1;" vertex="1" parent="01P3GvGtitKNu42vUklI-162">
          <mxGeometry x="240" width="60" height="50" as="geometry">
            <mxRectangle width="60" height="50" as="alternateBounds" />
          </mxGeometry>
        </mxCell>
        <mxCell id="01P3GvGtitKNu42vUklI-172" value="Day of Request" style="connectable=0;recursiveResize=0;strokeColor=inherit;fillColor=none;align=center;whiteSpace=wrap;html=1;" vertex="1" parent="01P3GvGtitKNu42vUklI-162">
          <mxGeometry x="300" width="60" height="50" as="geometry">
            <mxRectangle width="60" height="50" as="alternateBounds" />
          </mxGeometry>
        </mxCell>
        <mxCell id="01P3GvGtitKNu42vUklI-171" value="Hour of Request" style="connectable=0;recursiveResize=0;strokeColor=inherit;fillColor=none;align=center;whiteSpace=wrap;html=1;" vertex="1" parent="01P3GvGtitKNu42vUklI-162">
          <mxGeometry x="360" width="60" height="50" as="geometry">
            <mxRectangle width="60" height="50" as="alternateBounds" />
          </mxGeometry>
        </mxCell>
        <mxCell id="01P3GvGtitKNu42vUklI-170" value="Day of Handling" style="connectable=0;recursiveResize=0;strokeColor=inherit;fillColor=none;align=center;whiteSpace=wrap;html=1;" vertex="1" parent="01P3GvGtitKNu42vUklI-162">
          <mxGeometry x="420" width="60" height="50" as="geometry">
            <mxRectangle width="60" height="50" as="alternateBounds" />
          </mxGeometry>
        </mxCell>
        <mxCell id="01P3GvGtitKNu42vUklI-169" value="Hour of Handling" style="connectable=0;recursiveResize=0;strokeColor=inherit;fillColor=none;align=center;whiteSpace=wrap;html=1;" vertex="1" parent="01P3GvGtitKNu42vUklI-162">
          <mxGeometry x="480" width="60" height="50" as="geometry">
            <mxRectangle width="60" height="50" as="alternateBounds" />
          </mxGeometry>
        </mxCell>
        <mxCell id="01P3GvGtitKNu42vUklI-168" value="Additional Quota Request" style="text;html=1;align=center;verticalAlign=middle;whiteSpace=wrap;rounded=0;" vertex="1" parent="1">
          <mxGeometry x="-750" y="1610" width="150" height="30" as="geometry" />
        </mxCell>
        <mxCell id="01P3GvGtitKNu42vUklI-173" value="" style="childLayout=tableLayout;recursiveResize=0;shadow=0;fillColor=none;" vertex="1" parent="1">
          <mxGeometry x="-750" y="1770" width="660" height="70" as="geometry" />
        </mxCell>
        <mxCell id="01P3GvGtitKNu42vUklI-174" value="" style="shape=tableRow;horizontal=0;startSize=0;swimlaneHead=0;swimlaneBody=0;top=0;left=0;bottom=0;right=0;dropTarget=0;collapsible=0;recursiveResize=0;expand=0;fontStyle=0;fillColor=none;strokeColor=inherit;" vertex="1" parent="01P3GvGtitKNu42vUklI-173">
          <mxGeometry width="660" height="70" as="geometry" />
        </mxCell>
        <mxCell id="01P3GvGtitKNu42vUklI-175" value="&lt;u&gt;Room Change Request ID&lt;/u&gt;" style="connectable=0;recursiveResize=0;strokeColor=inherit;fillColor=none;align=center;whiteSpace=wrap;html=1;" vertex="1" parent="01P3GvGtitKNu42vUklI-174">
          <mxGeometry width="60" height="70" as="geometry">
            <mxRectangle width="60" height="70" as="alternateBounds" />
          </mxGeometry>
        </mxCell>
        <mxCell id="01P3GvGtitKNu42vUklI-176" value="User_ID" style="connectable=0;recursiveResize=0;strokeColor=inherit;fillColor=none;align=center;whiteSpace=wrap;html=1;" vertex="1" parent="01P3GvGtitKNu42vUklI-174">
          <mxGeometry x="60" width="60" height="70" as="geometry">
            <mxRectangle width="60" height="70" as="alternateBounds" />
          </mxGeometry>
        </mxCell>
        <mxCell id="01P3GvGtitKNu42vUklI-177" value="Course_ID" style="connectable=0;recursiveResize=0;strokeColor=inherit;fillColor=none;align=center;whiteSpace=wrap;html=1;" vertex="1" parent="01P3GvGtitKNu42vUklI-174">
          <mxGeometry x="120" width="60" height="70" as="geometry">
            <mxRectangle width="60" height="70" as="alternateBounds" />
          </mxGeometry>
        </mxCell>
        <mxCell id="01P3GvGtitKNu42vUklI-178" value="&lt;font&gt;Lecture/ Tutorial&lt;br&gt;(Lecture=1&lt;br style=&quot;&quot;&gt;Tutorial=2&lt;span style=&quot;color: light-dark(rgb(0, 0, 0), rgb(255, 255, 255)); background-color: transparent;&quot;&gt;)&lt;/span&gt;&lt;/font&gt;" style="connectable=0;recursiveResize=0;strokeColor=inherit;fillColor=none;align=center;whiteSpace=wrap;html=1;" vertex="1" parent="01P3GvGtitKNu42vUklI-174">
          <mxGeometry x="180" width="60" height="70" as="geometry">
            <mxRectangle width="60" height="70" as="alternateBounds" />
          </mxGeometry>
        </mxCell>
        <mxCell id="01P3GvGtitKNu42vUklI-179" value="Reason" style="connectable=0;recursiveResize=0;strokeColor=inherit;fillColor=none;align=center;whiteSpace=wrap;html=1;" vertex="1" parent="01P3GvGtitKNu42vUklI-174">
          <mxGeometry x="240" width="60" height="70" as="geometry">
            <mxRectangle width="60" height="70" as="alternateBounds" />
          </mxGeometry>
        </mxCell>
        <mxCell id="01P3GvGtitKNu42vUklI-180" value="Condition" style="connectable=0;recursiveResize=0;strokeColor=inherit;fillColor=none;align=center;whiteSpace=wrap;html=1;" vertex="1" parent="01P3GvGtitKNu42vUklI-174">
          <mxGeometry x="300" width="60" height="70" as="geometry">
            <mxRectangle width="60" height="70" as="alternateBounds" />
          </mxGeometry>
        </mxCell>
        <mxCell id="01P3GvGtitKNu42vUklI-185" value="Day of Request" style="connectable=0;recursiveResize=0;strokeColor=inherit;fillColor=none;align=center;whiteSpace=wrap;html=1;" vertex="1" parent="01P3GvGtitKNu42vUklI-174">
          <mxGeometry x="360" width="60" height="70" as="geometry">
            <mxRectangle width="60" height="70" as="alternateBounds" />
          </mxGeometry>
        </mxCell>
        <mxCell id="01P3GvGtitKNu42vUklI-184" value="Hour of Request" style="connectable=0;recursiveResize=0;strokeColor=inherit;fillColor=none;align=center;whiteSpace=wrap;html=1;" vertex="1" parent="01P3GvGtitKNu42vUklI-174">
          <mxGeometry x="420" width="60" height="70" as="geometry">
            <mxRectangle width="60" height="70" as="alternateBounds" />
          </mxGeometry>
        </mxCell>
        <mxCell id="01P3GvGtitKNu42vUklI-183" value="Day of Handling" style="connectable=0;recursiveResize=0;strokeColor=inherit;fillColor=none;align=center;whiteSpace=wrap;html=1;" vertex="1" parent="01P3GvGtitKNu42vUklI-174">
          <mxGeometry x="480" width="60" height="70" as="geometry">
            <mxRectangle width="60" height="70" as="alternateBounds" />
          </mxGeometry>
        </mxCell>
        <mxCell id="01P3GvGtitKNu42vUklI-182" value="Hour of Handling" style="connectable=0;recursiveResize=0;strokeColor=inherit;fillColor=none;align=center;whiteSpace=wrap;html=1;" vertex="1" parent="01P3GvGtitKNu42vUklI-174">
          <mxGeometry x="540" width="60" height="70" as="geometry">
            <mxRectangle width="60" height="70" as="alternateBounds" />
          </mxGeometry>
        </mxCell>
        <mxCell id="01P3GvGtitKNu42vUklI-224" value="New Room ID" style="connectable=0;recursiveResize=0;strokeColor=inherit;fillColor=none;align=center;whiteSpace=wrap;html=1;" vertex="1" parent="01P3GvGtitKNu42vUklI-174">
          <mxGeometry x="600" width="60" height="70" as="geometry">
            <mxRectangle width="60" height="70" as="alternateBounds" />
          </mxGeometry>
        </mxCell>
        <mxCell id="01P3GvGtitKNu42vUklI-181" value="Room Change Request" style="text;html=1;align=center;verticalAlign=middle;whiteSpace=wrap;rounded=0;" vertex="1" parent="1">
          <mxGeometry x="-750" y="1740" width="130" height="30" as="geometry" />
        </mxCell>
        <mxCell id="01P3GvGtitKNu42vUklI-186" value="" style="childLayout=tableLayout;recursiveResize=0;shadow=0;fillColor=none;" vertex="1" parent="1">
          <mxGeometry x="-750" y="1920" width="540" height="70" as="geometry" />
        </mxCell>
        <mxCell id="01P3GvGtitKNu42vUklI-187" value="" style="shape=tableRow;horizontal=0;startSize=0;swimlaneHead=0;swimlaneBody=0;top=0;left=0;bottom=0;right=0;dropTarget=0;collapsible=0;recursiveResize=0;expand=0;fontStyle=0;fillColor=none;strokeColor=inherit;" vertex="1" parent="01P3GvGtitKNu42vUklI-186">
          <mxGeometry width="540" height="70" as="geometry" />
        </mxCell>
        <mxCell id="01P3GvGtitKNu42vUklI-188" value="&lt;u&gt;Supplies Request ID&lt;/u&gt;" style="connectable=0;recursiveResize=0;strokeColor=inherit;fillColor=none;align=center;whiteSpace=wrap;html=1;" vertex="1" parent="01P3GvGtitKNu42vUklI-187">
          <mxGeometry width="60" height="70" as="geometry">
            <mxRectangle width="60" height="70" as="alternateBounds" />
          </mxGeometry>
        </mxCell>
        <mxCell id="01P3GvGtitKNu42vUklI-192" value="Cleaning Staff Member ID" style="connectable=0;recursiveResize=0;strokeColor=inherit;fillColor=none;align=center;whiteSpace=wrap;html=1;" vertex="1" parent="01P3GvGtitKNu42vUklI-187">
          <mxGeometry x="60" width="60" height="70" as="geometry">
            <mxRectangle width="60" height="70" as="alternateBounds" />
          </mxGeometry>
        </mxCell>
        <mxCell id="01P3GvGtitKNu42vUklI-189" value="Supplies" style="connectable=0;recursiveResize=0;strokeColor=inherit;fillColor=none;align=center;whiteSpace=wrap;html=1;" vertex="1" parent="01P3GvGtitKNu42vUklI-187">
          <mxGeometry x="120" width="60" height="70" as="geometry">
            <mxRectangle width="60" height="70" as="alternateBounds" />
          </mxGeometry>
        </mxCell>
        <mxCell id="01P3GvGtitKNu42vUklI-190" value="Expected Delivery Time" style="connectable=0;recursiveResize=0;strokeColor=inherit;fillColor=none;align=center;whiteSpace=wrap;html=1;" vertex="1" parent="01P3GvGtitKNu42vUklI-187">
          <mxGeometry x="180" width="60" height="70" as="geometry">
            <mxRectangle width="60" height="70" as="alternateBounds" />
          </mxGeometry>
        </mxCell>
        <mxCell id="01P3GvGtitKNu42vUklI-208" value="Condition" style="connectable=0;recursiveResize=0;strokeColor=inherit;fillColor=none;align=center;whiteSpace=wrap;html=1;" vertex="1" parent="01P3GvGtitKNu42vUklI-187">
          <mxGeometry x="240" width="60" height="70" as="geometry">
            <mxRectangle width="60" height="70" as="alternateBounds" />
          </mxGeometry>
        </mxCell>
        <mxCell id="01P3GvGtitKNu42vUklI-196" value="Day of Request" style="connectable=0;recursiveResize=0;strokeColor=inherit;fillColor=none;align=center;whiteSpace=wrap;html=1;" vertex="1" parent="01P3GvGtitKNu42vUklI-187">
          <mxGeometry x="300" width="60" height="70" as="geometry">
            <mxRectangle width="60" height="70" as="alternateBounds" />
          </mxGeometry>
        </mxCell>
        <mxCell id="01P3GvGtitKNu42vUklI-195" value="Hour of Request" style="connectable=0;recursiveResize=0;strokeColor=inherit;fillColor=none;align=center;whiteSpace=wrap;html=1;" vertex="1" parent="01P3GvGtitKNu42vUklI-187">
          <mxGeometry x="360" width="60" height="70" as="geometry">
            <mxRectangle width="60" height="70" as="alternateBounds" />
          </mxGeometry>
        </mxCell>
        <mxCell id="01P3GvGtitKNu42vUklI-194" value="Day of Handling" style="connectable=0;recursiveResize=0;strokeColor=inherit;fillColor=none;align=center;whiteSpace=wrap;html=1;" vertex="1" parent="01P3GvGtitKNu42vUklI-187">
          <mxGeometry x="420" width="60" height="70" as="geometry">
            <mxRectangle width="60" height="70" as="alternateBounds" />
          </mxGeometry>
        </mxCell>
        <mxCell id="01P3GvGtitKNu42vUklI-193" value="Hour of Handling" style="connectable=0;recursiveResize=0;strokeColor=inherit;fillColor=none;align=center;whiteSpace=wrap;html=1;" vertex="1" parent="01P3GvGtitKNu42vUklI-187">
          <mxGeometry x="480" width="60" height="70" as="geometry">
            <mxRectangle width="60" height="70" as="alternateBounds" />
          </mxGeometry>
        </mxCell>
        <mxCell id="01P3GvGtitKNu42vUklI-191" value="Supplies Request" style="text;html=1;align=center;verticalAlign=middle;whiteSpace=wrap;rounded=0;" vertex="1" parent="1">
          <mxGeometry x="-750" y="1890" width="110" height="30" as="geometry" />
        </mxCell>
        <mxCell id="01P3GvGtitKNu42vUklI-197" value="" style="childLayout=tableLayout;recursiveResize=0;shadow=0;fillColor=none;" vertex="1" parent="1">
          <mxGeometry x="-750" y="2080" width="480" height="70" as="geometry" />
        </mxCell>
        <mxCell id="01P3GvGtitKNu42vUklI-198" value="" style="shape=tableRow;horizontal=0;startSize=0;swimlaneHead=0;swimlaneBody=0;top=0;left=0;bottom=0;right=0;dropTarget=0;collapsible=0;recursiveResize=0;expand=0;fontStyle=0;fillColor=none;strokeColor=inherit;" vertex="1" parent="01P3GvGtitKNu42vUklI-197">
          <mxGeometry width="480" height="70" as="geometry" />
        </mxCell>
        <mxCell id="01P3GvGtitKNu42vUklI-199" value="&lt;u&gt;Cleaning Request ID&lt;/u&gt;" style="connectable=0;recursiveResize=0;strokeColor=inherit;fillColor=none;align=center;whiteSpace=wrap;html=1;" vertex="1" parent="01P3GvGtitKNu42vUklI-198">
          <mxGeometry width="60" height="70" as="geometry">
            <mxRectangle width="60" height="70" as="alternateBounds" />
          </mxGeometry>
        </mxCell>
        <mxCell id="01P3GvGtitKNu42vUklI-200" value="Room Services Member ID" style="connectable=0;recursiveResize=0;strokeColor=inherit;fillColor=none;align=center;whiteSpace=wrap;html=1;" vertex="1" parent="01P3GvGtitKNu42vUklI-198">
          <mxGeometry x="60" width="60" height="70" as="geometry">
            <mxRectangle width="60" height="70" as="alternateBounds" />
          </mxGeometry>
        </mxCell>
        <mxCell id="01P3GvGtitKNu42vUklI-201" value="Room ID" style="connectable=0;recursiveResize=0;strokeColor=inherit;fillColor=none;align=center;whiteSpace=wrap;html=1;" vertex="1" parent="01P3GvGtitKNu42vUklI-198">
          <mxGeometry x="120" width="60" height="70" as="geometry">
            <mxRectangle width="60" height="70" as="alternateBounds" />
          </mxGeometry>
        </mxCell>
        <mxCell id="01P3GvGtitKNu42vUklI-202" value="Condition" style="connectable=0;recursiveResize=0;strokeColor=inherit;fillColor=none;align=center;whiteSpace=wrap;html=1;" vertex="1" parent="01P3GvGtitKNu42vUklI-198">
          <mxGeometry x="180" width="60" height="70" as="geometry">
            <mxRectangle width="60" height="70" as="alternateBounds" />
          </mxGeometry>
        </mxCell>
        <mxCell id="01P3GvGtitKNu42vUklI-203" value="Day of Request" style="connectable=0;recursiveResize=0;strokeColor=inherit;fillColor=none;align=center;whiteSpace=wrap;html=1;" vertex="1" parent="01P3GvGtitKNu42vUklI-198">
          <mxGeometry x="240" width="60" height="70" as="geometry">
            <mxRectangle width="60" height="70" as="alternateBounds" />
          </mxGeometry>
        </mxCell>
        <mxCell id="01P3GvGtitKNu42vUklI-204" value="Hour of Request" style="connectable=0;recursiveResize=0;strokeColor=inherit;fillColor=none;align=center;whiteSpace=wrap;html=1;" vertex="1" parent="01P3GvGtitKNu42vUklI-198">
          <mxGeometry x="300" width="60" height="70" as="geometry">
            <mxRectangle width="60" height="70" as="alternateBounds" />
          </mxGeometry>
        </mxCell>
        <mxCell id="01P3GvGtitKNu42vUklI-205" value="Day of Handling" style="connectable=0;recursiveResize=0;strokeColor=inherit;fillColor=none;align=center;whiteSpace=wrap;html=1;" vertex="1" parent="01P3GvGtitKNu42vUklI-198">
          <mxGeometry x="360" width="60" height="70" as="geometry">
            <mxRectangle width="60" height="70" as="alternateBounds" />
          </mxGeometry>
        </mxCell>
        <mxCell id="01P3GvGtitKNu42vUklI-206" value="Hour of Handling" style="connectable=0;recursiveResize=0;strokeColor=inherit;fillColor=none;align=center;whiteSpace=wrap;html=1;" vertex="1" parent="01P3GvGtitKNu42vUklI-198">
          <mxGeometry x="420" width="60" height="70" as="geometry">
            <mxRectangle width="60" height="70" as="alternateBounds" />
          </mxGeometry>
        </mxCell>
        <mxCell id="01P3GvGtitKNu42vUklI-207" value="Cleaning Request" style="text;html=1;align=center;verticalAlign=middle;whiteSpace=wrap;rounded=0;" vertex="1" parent="1">
          <mxGeometry x="-750" y="2050" width="110" height="30" as="geometry" />
        </mxCell>
        <mxCell id="01P3GvGtitKNu42vUklI-210" style="edgeStyle=orthogonalEdgeStyle;rounded=0;orthogonalLoop=1;jettySize=auto;html=1;exitX=0.25;exitY=1;exitDx=0;exitDy=0;entryX=0.071;entryY=0.977;entryDx=0;entryDy=0;entryPerimeter=0;" edge="1" parent="1" source="01P3GvGtitKNu42vUklI-109" target="01P3GvGtitKNu42vUklI-32">
          <mxGeometry relative="1" as="geometry">
            <Array as="points">
              <mxPoint x="-245" y="1189" />
              <mxPoint x="-50" y="1189" />
              <mxPoint x="-50" y="529" />
            </Array>
          </mxGeometry>
        </mxCell>
        <mxCell id="01P3GvGtitKNu42vUklI-211" style="edgeStyle=orthogonalEdgeStyle;rounded=0;orthogonalLoop=1;jettySize=auto;html=1;exitX=0.75;exitY=1;exitDx=0;exitDy=0;entryX=0.076;entryY=0.994;entryDx=0;entryDy=0;entryPerimeter=0;" edge="1" parent="1" source="01P3GvGtitKNu42vUklI-109" target="01P3GvGtitKNu42vUklI-65">
          <mxGeometry relative="1" as="geometry">
            <Array as="points">
              <mxPoint x="-175" y="1180" />
              <mxPoint x="-110" y="1180" />
              <mxPoint x="-110" y="1070" />
              <mxPoint x="-700" y="1070" />
            </Array>
          </mxGeometry>
        </mxCell>
        <mxCell id="01P3GvGtitKNu42vUklI-213" style="edgeStyle=orthogonalEdgeStyle;rounded=0;orthogonalLoop=1;jettySize=auto;html=1;exitX=0.75;exitY=1;exitDx=0;exitDy=0;entryX=0.045;entryY=1;entryDx=0;entryDy=0;entryPerimeter=0;" edge="1" parent="1" source="01P3GvGtitKNu42vUklI-104" target="01P3GvGtitKNu42vUklI-65">
          <mxGeometry relative="1" as="geometry" />
        </mxCell>
        <mxCell id="01P3GvGtitKNu42vUklI-214" style="edgeStyle=orthogonalEdgeStyle;rounded=0;orthogonalLoop=1;jettySize=auto;html=1;exitX=0.25;exitY=1;exitDx=0;exitDy=0;entryX=0.04;entryY=0.992;entryDx=0;entryDy=0;entryPerimeter=0;" edge="1" parent="1" source="01P3GvGtitKNu42vUklI-104" target="01P3GvGtitKNu42vUklI-50">
          <mxGeometry relative="1" as="geometry">
            <Array as="points">
              <mxPoint x="-485" y="1189" />
              <mxPoint x="-780" y="1189" />
              <mxPoint x="-780" y="800" />
              <mxPoint x="-738" y="800" />
            </Array>
          </mxGeometry>
        </mxCell>
        <mxCell id="01P3GvGtitKNu42vUklI-215" style="edgeStyle=orthogonalEdgeStyle;rounded=0;orthogonalLoop=1;jettySize=auto;html=1;exitX=0.25;exitY=1;exitDx=0;exitDy=0;entryX=0.096;entryY=1.008;entryDx=0;entryDy=0;entryPerimeter=0;" edge="1" parent="1" source="01P3GvGtitKNu42vUklI-97" target="01P3GvGtitKNu42vUklI-50">
          <mxGeometry relative="1" as="geometry">
            <Array as="points">
              <mxPoint x="-715" y="1180" />
              <mxPoint x="-770" y="1180" />
              <mxPoint x="-770" y="810" />
              <mxPoint x="-721" y="810" />
            </Array>
          </mxGeometry>
        </mxCell>
        <mxCell id="01P3GvGtitKNu42vUklI-216" style="edgeStyle=orthogonalEdgeStyle;rounded=0;orthogonalLoop=1;jettySize=auto;html=1;exitX=0.75;exitY=1;exitDx=0;exitDy=0;entryX=0.021;entryY=1.088;entryDx=0;entryDy=0;entryPerimeter=0;" edge="1" parent="1" source="01P3GvGtitKNu42vUklI-97" target="01P3GvGtitKNu42vUklI-65">
          <mxGeometry relative="1" as="geometry">
            <Array as="points">
              <mxPoint x="-645" y="1180" />
              <mxPoint x="-590" y="1180" />
              <mxPoint x="-590" y="1090" />
              <mxPoint x="-736" y="1090" />
            </Array>
          </mxGeometry>
        </mxCell>
        <mxCell id="01P3GvGtitKNu42vUklI-217" style="edgeStyle=orthogonalEdgeStyle;rounded=0;orthogonalLoop=1;jettySize=auto;html=1;exitX=0.25;exitY=1;exitDx=0;exitDy=0;entryX=0.11;entryY=1.107;entryDx=0;entryDy=0;entryPerimeter=0;" edge="1" parent="1" source="01P3GvGtitKNu42vUklI-65" target="01P3GvGtitKNu42vUklI-41">
          <mxGeometry relative="1" as="geometry">
            <Array as="points">
              <mxPoint x="-585" y="1060" />
              <mxPoint x="-80" y="1060" />
              <mxPoint x="-80" y="680" />
              <mxPoint x="-717" y="680" />
            </Array>
          </mxGeometry>
        </mxCell>
        <mxCell id="01P3GvGtitKNu42vUklI-219" style="edgeStyle=orthogonalEdgeStyle;rounded=0;orthogonalLoop=1;jettySize=auto;html=1;entryX=0.078;entryY=-0.046;entryDx=0;entryDy=0;entryPerimeter=0;" edge="1" parent="1" target="01P3GvGtitKNu42vUklI-114">
          <mxGeometry relative="1" as="geometry">
            <mxPoint x="-540" y="1040" as="sourcePoint" />
            <Array as="points">
              <mxPoint x="-540" y="1210" />
              <mxPoint x="-708" y="1210" />
            </Array>
          </mxGeometry>
        </mxCell>
        <mxCell id="01P3GvGtitKNu42vUklI-220" style="edgeStyle=orthogonalEdgeStyle;rounded=0;orthogonalLoop=1;jettySize=auto;html=1;entryX=0.103;entryY=-0.013;entryDx=0;entryDy=0;entryPerimeter=0;" edge="1" parent="1" target="01P3GvGtitKNu42vUklI-114">
          <mxGeometry relative="1" as="geometry">
            <mxPoint x="-300" y="1040" as="sourcePoint" />
            <Array as="points">
              <mxPoint x="-300" y="1040" />
              <mxPoint x="-300" y="1220" />
              <mxPoint x="-695" y="1220" />
            </Array>
          </mxGeometry>
        </mxCell>
        <mxCell id="01P3GvGtitKNu42vUklI-221" style="edgeStyle=orthogonalEdgeStyle;rounded=0;orthogonalLoop=1;jettySize=auto;html=1;exitX=0.58;exitY=-0.003;exitDx=0;exitDy=0;entryX=0;entryY=0.5;entryDx=0;entryDy=0;exitPerimeter=0;" edge="1" parent="1" source="01P3GvGtitKNu42vUklI-126" target="01P3GvGtitKNu42vUklI-65">
          <mxGeometry relative="1" as="geometry">
            <Array as="points">
              <mxPoint x="-298" y="1350" />
              <mxPoint x="-790" y="1350" />
              <mxPoint x="-790" y="1015" />
            </Array>
          </mxGeometry>
        </mxCell>
        <mxCell id="01P3GvGtitKNu42vUklI-222" style="edgeStyle=orthogonalEdgeStyle;rounded=0;orthogonalLoop=1;jettySize=auto;html=1;exitX=0.117;exitY=1.027;exitDx=0;exitDy=0;entryX=0.068;entryY=1.029;entryDx=0;entryDy=0;entryPerimeter=0;exitPerimeter=0;" edge="1" parent="1" source="01P3GvGtitKNu42vUklI-126" target="01P3GvGtitKNu42vUklI-114">
          <mxGeometry relative="1" as="geometry">
            <Array as="points">
              <mxPoint x="-659" y="1450" />
              <mxPoint x="-770" y="1450" />
              <mxPoint x="-770" y="1330" />
              <mxPoint x="-714" y="1330" />
            </Array>
          </mxGeometry>
        </mxCell>
        <mxCell id="01P3GvGtitKNu42vUklI-223" style="edgeStyle=orthogonalEdgeStyle;rounded=0;orthogonalLoop=1;jettySize=auto;html=1;entryX=0;entryY=0.75;entryDx=0;entryDy=0;" edge="1" parent="1" target="01P3GvGtitKNu42vUklI-114">
          <mxGeometry relative="1" as="geometry">
            <mxPoint x="-660" y="1560" as="sourcePoint" />
            <Array as="points">
              <mxPoint x="-660" y="1559" />
              <mxPoint x="-660" y="1580" />
              <mxPoint x="-810" y="1580" />
              <mxPoint x="-810" y="1288" />
            </Array>
          </mxGeometry>
        </mxCell>
        <mxCell id="01P3GvGtitKNu42vUklI-225" style="edgeStyle=orthogonalEdgeStyle;rounded=0;orthogonalLoop=1;jettySize=auto;html=1;exitX=0.96;exitY=0.013;exitDx=0;exitDy=0;entryX=0.097;entryY=1.065;entryDx=0;entryDy=0;entryPerimeter=0;exitPerimeter=0;" edge="1" parent="1" source="01P3GvGtitKNu42vUklI-174" target="01P3GvGtitKNu42vUklI-114">
          <mxGeometry relative="1" as="geometry">
            <Array as="points">
              <mxPoint x="-116" y="1720" />
              <mxPoint x="60" y="1720" />
              <mxPoint x="60" y="1330" />
              <mxPoint x="-698" y="1330" />
            </Array>
          </mxGeometry>
        </mxCell>
        <mxCell id="01P3GvGtitKNu42vUklI-226" style="edgeStyle=orthogonalEdgeStyle;rounded=0;orthogonalLoop=1;jettySize=auto;html=1;exitX=0.25;exitY=0;exitDx=0;exitDy=0;entryX=0;entryY=0.25;entryDx=0;entryDy=0;" edge="1" parent="1" source="01P3GvGtitKNu42vUklI-174" target="01P3GvGtitKNu42vUklI-65">
          <mxGeometry relative="1" as="geometry">
            <Array as="points">
              <mxPoint x="-585" y="1740" />
              <mxPoint x="-830" y="1740" />
              <mxPoint x="-830" y="1002" />
            </Array>
          </mxGeometry>
        </mxCell>
        <mxCell id="01P3GvGtitKNu42vUklI-227" style="edgeStyle=orthogonalEdgeStyle;rounded=0;orthogonalLoop=1;jettySize=auto;html=1;exitX=0.167;exitY=1.002;exitDx=0;exitDy=0;entryX=0;entryY=0.5;entryDx=0;entryDy=0;exitPerimeter=0;" edge="1" parent="1" source="01P3GvGtitKNu42vUklI-187" target="01P3GvGtitKNu42vUklI-11">
          <mxGeometry relative="1" as="geometry">
            <Array as="points">
              <mxPoint x="-660" y="2010" />
              <mxPoint x="-850" y="2010" />
              <mxPoint x="-850" y="245" />
            </Array>
          </mxGeometry>
        </mxCell>
        <mxCell id="01P3GvGtitKNu42vUklI-228" style="edgeStyle=orthogonalEdgeStyle;rounded=0;orthogonalLoop=1;jettySize=auto;html=1;exitX=0.201;exitY=1;exitDx=0;exitDy=0;entryX=0;entryY=0.5;entryDx=0;entryDy=0;exitPerimeter=0;" edge="1" parent="1" source="01P3GvGtitKNu42vUklI-198" target="01P3GvGtitKNu42vUklI-2">
          <mxGeometry relative="1" as="geometry">
            <Array as="points">
              <mxPoint x="-653" y="2170" />
              <mxPoint x="-870" y="2170" />
              <mxPoint x="-870" y="125" />
            </Array>
          </mxGeometry>
        </mxCell>
        <mxCell id="01P3GvGtitKNu42vUklI-229" style="edgeStyle=orthogonalEdgeStyle;rounded=0;orthogonalLoop=1;jettySize=auto;html=1;exitX=0.321;exitY=1.011;exitDx=0;exitDy=0;entryX=0;entryY=0.25;entryDx=0;entryDy=0;exitPerimeter=0;" edge="1" parent="1" source="01P3GvGtitKNu42vUklI-198" target="01P3GvGtitKNu42vUklI-114">
          <mxGeometry relative="1" as="geometry">
            <Array as="points">
              <mxPoint x="-596" y="2190" />
              <mxPoint x="-890" y="2190" />
              <mxPoint x="-890" y="1263" />
            </Array>
          </mxGeometry>
        </mxCell>
      </root>
    </mxGraphModel>
  </diagram>
</mxfile>
